# xmcd
#
# Track frame offsets: 
#        150
#        19137
#        36907
#        52287
#        63910
#        82244
#        98546
#        116845
#        132528
#        150738
#        169046
#        183763
#        200621
#        222193
#        239171
#        261477
#        278380
#        297808
#        317124
#        334225
#
# Disc length: 4667 seconds
#
# Revision: 0
# Processed by: cddbd v1.5.2PL0 Copyright (c) Steve Scherf et al.
# Submitted via: ExactAudioCopy v1.1
#
DISCID=35123914
DTITLE=Various Artist - De Pré Historie 80 - 4 CD Box - CD 4
DYEAR=2010
DGENRE=Top 40
TTITLE0=The Style Council - Shout To The Top!
TTITLE1=Sam Brown - Stop!
TTITLE2=Rick James - Super Freak
TTITLE3=Tracey Ullman - Breakaway
TTITLE4=Ph.D. - I Won't Let You Down
TTITLE5=Joan Armatrading - Drop The Pilot
TTITLE6=Diana Ross - Upside Down
TTITLE7=ABC - The Look Of Love
TTITLE8=The Beautiful South - Song For Whoever
TTITLE9=Laura Branigan - Self Control
TTITLE10=Captain Sensible - Wot!
TTITLE11=Band Aid - Do They Know It's Christmas?
TTITLE12=Bobby Brown - My Prerogative
TTITLE13=A-Ha - Take On Me
TTITLE14=Foreigner - I Want To Know What Love Is
TTITLE15=Yes - Owner Of A Lonely Heart
TTITLE16=Mica Paris - My One Temptation
TTITLE17=Randy Crawford - One Day I'll Fly Away
TTITLE18=Will Downing - A Love Supreme
TTITLE19=Yarbrough and Peoples - Don't Stop The Music
EXTD=
EXTT0=
EXTT1=
EXTT2=
EXTT3=
EXTT4=
EXTT5=
EXTT6=
EXTT7=
EXTT8=
EXTT9=
EXTT10=
EXTT11=
EXTT12=
EXTT13=
EXTT14=
EXTT15=
EXTT16=
EXTT17=
EXTT18=
EXTT19=
PLAYORDER=
